<svg id="Layer_1" enable-background="new 0 0 512 512" height="512" viewBox="0 0 512 512" width="512" xmlns="http://www.w3.org/2000/svg"><g><circle cx="346" cy="206" r="10"/><path d="m256.29 396c-5.52 0-10 4.49-10 10s4.48 10 10 10c5.51 0 9.99-4.49 9.99-10s-4.48-10-9.99-10z"/><path d="m386 256c5.523 0 10-4.477 10-10v-80c0-5.523-4.477-10-10-10h-260c-5.523 0-10 4.477-10 10v80c0 5.523 4.477 10 10 10zm-10-20h-60v-60h60zm-240-60h160v60h-160z"/><path d="m502 211h-30v-5c0-14.85-2.91-29.26-8.65-42.82-5.54-13.1-13.47-24.86-23.57-34.96s-21.86-18.03-34.96-23.57c-13.56-5.74-27.97-8.65-42.82-8.65h-212c-14.85 0-29.26 2.91-42.82 8.65-13.1 5.54-24.86 13.47-34.96 23.57s-18.03 21.86-23.57 34.96c-5.74 13.56-8.65 27.97-8.65 42.82v5h-30c-5.523 0-10 4.477-10 10v70c0 5.523 4.477 10 10 10h30v5c0 14.85 2.91 29.26 8.65 42.82 5.54 13.1 13.47 24.86 23.57 34.96s21.86 18.03 34.96 23.57c13.56 5.74 27.97 8.65 42.82 8.65h61.29c5.51 0 9.99-4.49 9.99-10s-4.48-10-9.99-10h-61.29c-24.03-.01-46.63-9.37-63.64-26.36-16.99-17.01-26.35-39.61-26.36-63.64v-100c.01-24.03 9.37-46.63 26.36-63.64 17.01-16.99 39.61-26.36 63.64-26.36h212c24.03 0 46.63 9.37 63.64 26.36 16.99 17.01 26.36 39.61 26.36 63.64v100c0 24.03-9.37 46.63-26.36 63.64-17.01 16.99-39.61 26.35-63.64 26.36h-60.71c-5.52 0-10 4.49-10 10s4.48 10 10 10h60.71c14.85 0 29.26-2.91 42.82-8.65 13.1-5.54 24.86-13.47 34.96-23.57s18.03-21.86 23.57-34.96c5.74-13.56 8.65-27.97 8.65-42.82v-5h30c5.523 0 10-4.477 10-10v-70c0-5.523-4.477-10-10-10zm-482 70v-50h20v50zm472 0h-20v-50h20z"/><path d="m256 316c-16.542 0-30 13.458-30 30s13.458 30 30 30 30-13.458 30-30-13.458-30-30-30zm0 40c-5.514 0-10-4.486-10-10s4.486-10 10-10 10 4.486 10 10-4.486 10-10 10z"/><path d="m350 336h-34c-5.523 0-10 4.477-10 10s4.477 10 10 10h34c5.523 0 10-4.477 10-10s-4.477-10-10-10z"/><path d="m162 336c-5.523 0-10 4.477-10 10s4.477 10 10 10h34c5.523 0 10-4.477 10-10s-4.477-10-10-10z"/><circle cx="166" cy="206" r="10"/><circle cx="216" cy="206" r="10"/><circle cx="266" cy="206" r="10"/><path d="m360 286c0-5.523-4.477-10-10-10h-188c-5.523 0-10 4.477-10 10s4.477 10 10 10h188c5.523 0 10-4.477 10-10z"/></g></svg>