<?xml version="1.0" encoding="iso-8859-1"?>
<!-- Generator: Adobe Illustrator 19.0.0, SVG Export Plug-In . SVG Version: 6.00 Build 0)  -->
<svg version="1.1" id="Capa_1" xmlns="http://www.w3.org/2000/svg" xmlns:xlink="http://www.w3.org/1999/xlink" x="0px" y="0px"
	 viewBox="0 0 480.006 480.006" style="enable-background:new 0 0 480.006 480.006;" xml:space="preserve">
<g>
	<g>
		<g>
			<path d="M304,384.003h-56v-48h16c22.08-0.026,39.974-17.92,40-40v-256c-0.026-22.08-17.92-39.974-40-40H40
				c-22.08,0.026-39.974,17.92-40,40v256c0.026,22.08,17.92,39.974,40,40v104c0.026,22.08,17.92,39.974,40,40h192
				c22.08-0.026,39.974-17.92,40-40v-48C312,387.585,308.418,384.003,304,384.003z M40,320.003c-13.255,0-24-10.745-24-24v-256
				c0-13.255,10.745-24,24-24h224c13.255,0,24,10.745,24,24v256c0,13.255-10.745,24-24,24H40z M80,464.003
				c-13.255,0-24-10.745-24-24v-104h176v104c0.018,2.49,0.269,4.973,0.752,7.416c0.144,0.8,0.376,1.496,0.56,2.248
				c0.397,1.616,0.894,3.206,1.488,4.76c0.312,0.8,0.656,1.6,1.024,2.4c0.67,1.436,1.426,2.831,2.264,4.176
				c0.432,0.696,0.84,1.392,1.312,2.056c0.224,0.312,0.392,0.672,0.616,0.976L80,464.003z M296,440.003c0,13.255-10.745,24-24,24
				s-24-10.745-24-24v-40h48V440.003z"/>
			<path d="M48,144.003h208c4.418,0,8-3.582,8-8v-96c0-4.418-3.582-8-8-8H48c-4.418,0-8,3.582-8,8v96
				C40,140.421,43.582,144.003,48,144.003z M56,48.003h192v80H56V48.003z"/>
			<path d="M96,160.003H48c-4.418,0-8,3.582-8,8v48c0,4.418,3.582,8,8,8h48c4.418,0,8-3.582,8-8v-48
				C104,163.585,100.418,160.003,96,160.003z M88,208.003H56v-32h32V208.003z"/>
			<path d="M96,240.003H48c-4.418,0-8,3.582-8,8v48c0,4.418,3.582,8,8,8h48c4.418,0,8-3.582,8-8v-48
				C104,243.585,100.418,240.003,96,240.003z M88,288.003H56v-32h32V288.003z"/>
			<path d="M176,160.003h-48c-4.418,0-8,3.582-8,8v48c0,4.418,3.582,8,8,8h48c4.418,0,8-3.582,8-8v-48
				C184,163.585,180.418,160.003,176,160.003z M168,208.003h-32v-32h32V208.003z"/>
			<path d="M176,240.003h-48c-4.418,0-8,3.582-8,8v48c0,4.418,3.582,8,8,8h48c4.418,0,8-3.582,8-8v-48
				C184,243.585,180.418,240.003,176,240.003z M168,288.003h-32v-32h32V288.003z"/>
			<path d="M256,160.003h-48c-4.418,0-8,3.582-8,8v48c0,4.418,3.582,8,8,8h48c4.418,0,8-3.582,8-8v-48
				C264,163.585,260.418,160.003,256,160.003z M248,208.003h-32v-32h32V208.003z"/>
			<path d="M264,248.003c0-4.418-3.582-8-8-8h-48c-4.418,0-8,3.582-8,8v48c0,4.418,3.582,8,8,8h48c4.418,0,8-3.582,8-8V248.003z
				 M248,288.003h-32v-32h32V288.003z"/>
			<path d="M479.599,232.01c-3.805-37.855-33.744-67.794-71.599-71.599V72.003c0-4.418-3.582-8-8-8h-52.688l20.288-20.28
				c3.178-3.07,3.266-8.134,0.196-11.312s-8.134-3.266-11.312-0.196c-0.067,0.064-0.132,0.13-0.196,0.196l-33.936,33.928
				c-0.739,0.74-1.326,1.618-1.728,2.584c-0.832,1.969-0.832,4.191,0,6.16c0.401,0.966,0.989,1.844,1.728,2.584l33.936,33.928
				c3.07,3.178,8.134,3.266,11.312,0.196c3.178-3.07,3.266-8.134,0.196-11.312c-0.064-0.067-0.13-0.132-0.196-0.196l-20.288-20.28
				H392v80.408c-43.961,4.418-76.017,43.638-71.599,87.599s43.638,76.017,87.599,71.599S484.017,275.971,479.599,232.01z
				 M400,304.003c-35.346,0-64-28.654-64-64c0-35.346,28.654-64,64-64c35.346,0,64,28.654,64,64
				C463.96,275.333,435.33,303.963,400,304.003z"/>
			<path d="M400,216.003c4.418,0,8,3.582,8,8s3.582,8,8,8s8-3.582,8-8c-0.042-10.134-6.445-19.15-16-22.528v-9.472
				c0-4.418-3.582-8-8-8s-8,3.582-8,8v9.472c-12.473,4.393-19.023,18.066-14.629,30.539c3.38,9.596,12.455,16.009,22.629,15.989
				c4.418,0,8,3.582,8,8s-3.582,8-8,8s-8-3.582-8-8s-3.582-8-8-8s-8,3.582-8,8c0.042,10.134,6.445,19.15,16,22.528v9.472
				c0,4.418,3.582,8,8,8s8-3.582,8-8v-9.472c12.473-4.393,19.023-18.066,14.629-30.539c-3.38-9.596-12.455-16.009-22.629-15.989
				c-4.418,0-8-3.582-8-8S395.582,216.003,400,216.003z"/>
			<path d="M405.656,338.347c-3.124-3.123-8.188-3.123-11.312,0L360.4,372.283c-3.07,3.178-2.982,8.242,0.196,11.312
				c3.1,2.995,8.016,2.995,11.116,0L392,363.315v52.688h-56c-4.418,0-8,3.582-8,8s3.582,8,8,8h64c4.418,0,8-3.582,8-8v-60.688
				l20.288,20.28c3.178,3.07,8.242,2.982,11.312-0.196c2.995-3.1,2.995-8.016,0-11.116L405.656,338.347z"/>
		</g>
	</g>
</g>
<g>
</g>
<g>
</g>
<g>
</g>
<g>
</g>
<g>
</g>
<g>
</g>
<g>
</g>
<g>
</g>
<g>
</g>
<g>
</g>
<g>
</g>
<g>
</g>
<g>
</g>
<g>
</g>
<g>
</g>
</svg>
