<svg height="512" viewBox="0 0 52 60" width="512" xmlns="http://www.w3.org/2000/svg"><g id="Page-1" fill="none" fill-rule="evenodd"><g id="061---tip-alert" fill="rgb(0,0,0)" fill-rule="nonzero" transform="translate(0 -1)"><path id="Shape" d="m0 17v27c.00330612 2.7600532 2.23994685 4.9966939 5 5h10c.3141693.002469.6095232.1501459.8.4l7.892 10.52c.5767344.6914252 1.4331163 1.0878062 2.3334669 1.080058.9003507-.0077483 1.7497839-.4188094 2.3145331-1.120058l7.86-10.48c.1907733-.2494956.4859395-.3970787.8-.4h10c2.7600532-.0033061 4.9966939-2.2399468 5-5v-27c-.0033061-2.7600532-2.2399468-4.9966939-5-5h-6.552c-1.8621783-6.76120471-8.1663908-11.32512046-15.171-10.983-6.4649067.32465149-11.9974867 4.74805732-13.737 10.983h-6.54c-2.76005315.0033061-4.99669388 2.2399468-5 5zm25.371-13.985c3.552844-.17210456 7.0210337 1.11909986 9.5963277 3.57270562s4.0327341 5.85528428 4.0326723 9.41229438c.0136158 3.5962012-1.4803635 7.0335505-4.119 9.477-2.5190632 2.4304539-3.923291 5.7928576-3.881 9.293v1.23h-10v-1.062c.043568-3.5762117-1.3791458-7.014286-3.937-9.514-3.7825252-3.5778284-5.062877-9.0687256-3.2529577-13.9505844 1.8099194-4.88185876 6.3602685-8.21105909 11.5609577-8.4584156zm3.629 39.985h-6c-1.1045695 0-2-.8954305-2-2v-3h10v3c0 1.1045695-.8954305 2-2 2zm-27-26c0-1.6568542 1.34314575-3 3-3h6.147c-.028.209-.067.415-.085.627-.4263131 4.5779798 1.2805965 9.0970292 4.627 12.25 2.1589602 2.121572 3.355391 5.0344167 3.311 8.061v6.062c.0068148 1.8184116 1.2393149 3.4034067 3 3.858v1.142c0 .5522847.4477153 1 1 1s1-.4477153 1-1v-1h4v1c0 .5522847.4477153 1 1 1s1-.4477153 1-1v-1.142c1.7606851-.4545933 2.9931852-2.0395884 3-3.858v-6.23c-.043588-2.946645 1.1312982-5.780556 3.247-7.832 3.0452518-2.820169 4.7692165-6.7875002 4.753-10.938-.0049846-.6691731-.0540911-1.3372893-.147-2h6.147c1.6568542 0 3 1.3431458 3 3v27c0 1.6568542-1.3431458 3-3 3h-10c-.9432016.0045098-1.8304712.4481446-2.4 1.2l-7.828 10.441c-.4068406.4277665-1.0831112.4456572-1.512.04l-7.86-10.481c-.5692256-.7522204-1.4566883-1.1959517-2.4-1.2h-10c-1.65685425 0-3-1.3431458-3-3z"/><path id="Shape" d="m24 29c-.5522847 0-1 .4477153-1 1v3c0 .5522847.4477153 1 1 1s1-.4477153 1-1v-3c0-.5522847-.4477153-1-1-1z"/><path id="Shape" d="m23 25c0 .5522847.4477153 1 1 1s1-.4477153 1-1v-1c0-.5522847-.4477153-1-1-1s-1 .4477153-1 1z"/><path id="Shape" d="m28 34c.5522847 0 1-.4477153 1-1v-3c0-.5522847-.4477153-1-1-1s-1 .4477153-1 1v3c0 .5522847.4477153 1 1 1z"/><path id="Shape" d="m28 26c.5522847 0 1-.4477153 1-1v-1c0-.5522847-.4477153-1-1-1s-1 .4477153-1 1v1c0 .5522847.4477153 1 1 1z"/><path id="Shape" d="m10 8c.424813.00019929.8033866-.26802335.9440546-.6688708.1406679-.40084745.0127245-.84682031-.3190546-1.1121292l-5-4c-.43133439-.34517797-1.06082203-.27533439-1.406.156s-.27533439 1.06082203.156 1.406l5 4c.17741219.1418687.3978397.2191065.625.219z"/><path id="Shape" d="m42.625 7.781 5-4c.4313344-.34517797.501178-.97466561.156-1.406s-.9746656-.50117797-1.406-.156l-5 4c-.2790244.22329099-.4177293.57847814-.3638658.93176588.0538634.35328774.2921121.65100325.625.781.3328878.12999674.7098414.07252511.9888658-.15076588z"/><path id="Shape" d="m4.219 36.625c.1657145.2072013.40697812.3400545.67067795.3693128.26369984.0292583.52821794-.0474769.73532205-.2133128l5-4c.4313344-.345178.501178-.9746656.156-1.406s-.97466561-.501178-1.406-.156l-5 4c-.20720125.1657145-.3400545.4069781-.3693128.670678-.0292583.2636998.04747691.5282179.2133128.735322z"/><path id="Shape" d="m46.375 36.781c.4313344.345178 1.060822.2753344 1.406-.156s.2753344-1.060822-.156-1.406l-5-4c-.4313344-.3451779-1.060822-.2753344-1.406.156-.3451779.4313344-.2753344 1.060822.156 1.406z"/><path id="Shape" d="m16.809 13.981c.0628877.0125936.1268637.0189577.191.019.4783541-.0008536.8891133-.3403587.98-.81.717-3.683 4.364-5.251 4.4-5.266.5105873-.21069663.7536966-.79541275.543-1.306s-.7954127-.75369663-1.306-.543c-.191.078-4.676 1.974-5.6 6.735-.1044392.5420227.2500556 1.0661557.792 1.171z"/><path id="Shape" d="m5 19h3c.55228475 0 1-.4477153 1-1s-.44771525-1-1-1h-3c-.55228475 0-1 .4477153-1 1s.44771525 1 1 1z"/><path id="Shape" d="m44 19h3c.5522847 0 1-.4477153 1-1s-.4477153-1-1-1h-3c-.5522847 0-1 .4477153-1 1s.4477153 1 1 1z"/></g></g></svg>