<svg height="512" viewBox="0 0 128 128" width="512" xmlns="http://www.w3.org/2000/svg"><g><path d="m67.938 35.2h43.124a1.75 1.75 0 0 0 1.75-1.75v-26.95a1.75 1.75 0 0 0 -1.75-1.75h-43.124a1.75 1.75 0 0 0 -1.75 1.75v26.952a1.75 1.75 0 0 0 1.75 1.748zm1.75-26.95h39.624v23.45h-39.624z"/><path d="m41.25 113.75h-9a1.75 1.75 0 0 0 0 3.5h9a1.75 1.75 0 0 0 0-3.5z"/><path d="m121.5 62.25h-83.25v-4.673a1.75 1.75 0 0 0 -1.75-1.75h-4.25v-10.765h14.024a1.75 1.75 0 0 0 1.75-1.75v-19.718a1.749 1.749 0 0 0 -1.75-1.75h-31.548a1.749 1.749 0 0 0 -1.75 1.75v19.718a1.75 1.75 0 0 0 1.75 1.75h14.024v10.765h-4.25a1.75 1.75 0 0 0 -1.75 1.75v4.673h-16.25a1.75 1.75 0 0 0 -1.75 1.75v6a1.75 1.75 0 0 0 1.75 1.75h4.25v49.75a1.75 1.75 0 0 0 1.75 1.75h103a1.75 1.75 0 0 0 1.75-1.75v-49.75h4.25a1.75 1.75 0 0 0 1.75-1.75v-6a1.75 1.75 0 0 0 -1.75-1.75zm-105.024-36.906h28.048v16.218h-14.005-.019-.019-14.005zm9.774 33.983h4.221.029s.019 0 .029 0h4.221v2.923h-8.5zm87.5 43.673h-99.5v-8.5h99.5zm-99.5 16.75v-13.25h99.5v13.25zm99.5-28.75h-99.5v-19.25h99.5zm6-22.75h-111.5v-2.5h111.5z"/><path d="m102.5 11.488h-26a1.75 1.75 0 0 0 0 3.5h26a1.75 1.75 0 0 0 0-3.5z"/><path d="m102.5 24.965h-26a1.75 1.75 0 0 0 0 3.5h26a1.75 1.75 0 0 0 0-3.5z"/><path d="m102.5 18.227h-26a1.75 1.75 0 0 0 0 3.5h26a1.75 1.75 0 0 0 0-3.5z"/></g></svg>