<svg id="Layer_3" enable-background="new 0 0 64 64" height="512" viewBox="0 0 64 64" width="512" xmlns="http://www.w3.org/2000/svg"><path d="m57.26 34.122-10.277-1.953c.002-.057.017-.111.017-.169v-2.353c2.984-1.732 5-4.955 5-8.647 1.654 0 3-1.346 3-3 0-1.484-1.085-2.711-2.502-2.95l.57-1.322c1.027-2.381.844-5.131-.49-7.355-.846-1.41-2.083-2.515-3.579-3.196l-2.791-1.271c-3.298-1.5-7.337-1.061-10.23 1.11l-1.545 1.159-.043.03c-1.555.409-2.927 1.412-3.771 2.818-1.102 1.835-1.188 4.075-.23 5.991l1.023 2.045c-1.374.275-2.412 1.488-2.412 2.941 0 1.654 1.346 3 3 3 0 3.692 2.016 6.915 5 8.647v2.353c0 .058.015.112.017.169l-4.017.763v-1.932c0-1.654-1.346-3-3-3h-26c-1.654 0-3 1.346-3 3v14c0 1.654 1.346 3 3 3h10v7h-12c-.553 0-1 .448-1 1v6c0 .552.447 1 1 1h54 6c.553 0 1-.448 1-1v-20.993c0-3.384-2.417-6.281-5.74-6.885zm-37.26 13.878h1v7h-1zm3 0h4v7h-4zm6 0h3 23v7h-26zm26-2h-2v-10.652l2 .38zm-2-28c0 .551-.448 1-1 1v-2c.552 0 1 .449 1 1zm-20.666-9.947c.76-1.266 2.15-2.053 3.627-2.053 1.568 0 3.023.779 3.893 2.084l.314.471 1.664-1.11-.314-.471c-.901-1.352-2.246-2.302-3.771-2.724 2.263-1.404 5.194-1.631 7.633-.523l2.791 1.271c1.125.512 2.057 1.343 2.692 2.404 1.004 1.674 1.142 3.743.369 5.535l-.068.157-1.27-2.541c-.133-.265-.376-.458-.665-.526-.291-.068-.593-.004-.83.173l-1.599 1.2c-1.376 1.032-3.081 1.6-4.8 1.6s-3.424-.568-4.8-1.6l-1.6-1.2c-.236-.178-.538-.242-.83-.173-.289.068-.532.261-.665.526l-1.356 2.711-.572-1.144c-.649-1.3-.591-2.821.157-4.067zm-1.334 9.947c0-.551.448-1 1-1v2c-.552 0-1-.449-1-1zm3 3v-5.764l1.358-2.717.642.481c1.721 1.29 3.852 2 6 2s4.279-.71 6.001-2l.641-.481 1.358 2.717v5.764c0 4.411-3.589 8-8 8s-8-3.589-8-8zm8 10c1.045 0 2.052-.163 3-.461v1.461c0 1.654-1.346 3-3 3s-3-1.346-3-3v-1.461c.948.298 1.955.461 3 .461zm-4.513 3.115c.799 1.699 2.515 2.885 4.513 2.885s3.714-1.186 4.513-2.885l4.487.853v11.032h-18v-11.032zm-33.487 11.885c-.552 0-1-.449-1-1v-14c0-.551.448-1 1-1h26c.552 0 1 .449 1 1v15h-3-8v-8c0-.552-.447-1-1-1h-4c-.553 0-1 .448-1 1v8zm12-7h2v16h-2zm39 22h-52v-4h52zm6 0h-4v-5-9-10.883c2.322.475 4 2.51 4 4.89z"/></svg>