<svg id="Filled" height="512" viewBox="0 0 512 512" width="512" xmlns="http://www.w3.org/2000/svg"><path d="m304 352-38.66 41.23-81.34 86.77h-160l80-272h72l40 80-72 48 115.46 11.55z" fill="#ffb632"/><path d="m368 208-108.54 139.55-115.46-11.55 72-48-40-80z" fill="#eb423f"/><path d="m488 480h-128l-94.66-86.77 38.66-41.23-44.54-4.45 108.54-139.55h40z" fill="#2d85cc"/><path d="m360 480h-176l81.34-86.77z" fill="#35a872"/><path d="m336 112a80 80 0 1 0 -128 64l48 104 48-104a79.875 79.875 0 0 0 32-64z" fill="#e1e3e6"/><circle cx="256" cy="112" fill="#757c80" r="30"/><path d="m256 150a38 38 0 1 0 -38-38 38.043 38.043 0 0 0 38 38zm0-60a22 22 0 1 1 -22 22 22.025 22.025 0 0 1 22-22z"/><path d="m415.675 205.743a8 8 0 0 0 -7.675-5.743h-106.266l8.7-18.858a88 88 0 1 0 -108.876 0l8.7 18.858h-106.258a8 8 0 0 0 -7.675 5.743l-80 272a8 8 0 0 0 7.675 10.257h464a8 8 0 0 0 7.675-10.257zm-231.675-93.743a72 72 0 1 1 115.194 57.6 8.008 8.008 0 0 0 -2.459 3.044l-40.735 88.265-40.735-88.26a8.017 8.017 0 0 0 -2.459-3.044 71.462 71.462 0 0 1 -28.806-57.605zm64.736 171.353a8 8 0 0 0 14.528 0l31.085-67.353h57.463l-94.167 123.141.277.212-90.894-9.09 53.41-35.607a8 8 0 0 0 2.99-9.627l-27.612-69.029h21.835zm-138.75-67.353h68.6l27.578 68.944-66.6 44.4a8 8 0 0 0 3.636 14.616l143.879 14.389-106.545 113.651h-145.842zm159.361 184.661 71.339 71.339h-138.22zm93.967 71.339-83.014-83.019 29.54-31.509a8 8 0 0 0 -5.04-13.432l-28.571-2.857 95.724-125.183h30.061l75.3 256z"/></svg>